<svg
   xmlns="http://www.w3.org/2000/svg"
   viewBox="0 0 96 84.524"
   fill="none">
  <g
     clip-path="url(#clip0_1838_45586)"
     transform="matrix(1.2615392,0,0,1.2615392,-12.553169,-18.29232)">
    <path
       d="M 82.015,14.5 H 60.81 L 52.255,26.655 47.165,38.7 60.81,40.24 74.98,38.755 85.5,20.54 C 87.055,17.855 85.115,14.5 82.015,14.5 Z"
       fill="#1967D2" />
    <path
       d="m 10.5049,20.555 8.815,15.11 c 1.08,1.85 3.06,2.99 5.205,2.995 l 22.645,0.045 13.645,-24.205 h -46.83 c -3.11,0 -5.04498,3.37 -3.48,6.055 z"
       fill="#4285F4" />
    <path
       d="m 51.66,79.48 c -1.535,2.67 -5.375,2.7 -6.95,0.055 l -8.775,-14.73 c -1.11,-1.86 -1.135,-4.17 -0.07,-6.055 l 11.3,-20.05 27.815,0.055 z"
       fill="#4285F4" />
  </g>
  <defs>
    <clipPath
       id="clip0_1838_45586">
      <rect
         width="96"
         height="96"
         fill="white" />
    </clipPath>
  </defs>
</svg>
